<svg xmlns="http://www.w3.org/2000/svg" viewBox="0 0 800 200" width="800" height="200" role="img" aria-labelledby="dxmsgBannerTitle" aria-describedby="dxmsgBannerDesc">
  <title id="dxmsgBannerTitle">DxMessaging: decoupled Unity messaging</title>
  <desc id="dxmsgBannerDesc">A DxKit-family amber DxMessaging banner for decoupled, simple Unity systems.</desc>
  <defs>
    <linearGradient id="dxBannerBackground" x1="0" y1="0" x2="800" y2="200" gradientUnits="userSpaceOnUse">
      <stop stop-color="#0d1117"/>
      <stop offset="0.62" stop-color="#10151d"/>
      <stop offset="1" stop-color="#1b1813"/>
    </linearGradient>
    <linearGradient id="dxBannerAmber" x1="40" y1="32" x2="742" y2="164" gradientUnits="userSpaceOnUse">
      <stop stop-color="#ffd48e"/>
      <stop offset="0.48" stop-color="#f4a836"/>
      <stop offset="1" stop-color="#b07d1f"/>
    </linearGradient>
    <filter id="dxBannerSoftShadow" x="-20%" y="-20%" width="140%" height="140%">
      <feDropShadow dx="0" dy="10" stdDeviation="12" flood-color="#000000" flood-opacity="0.32"/>
    </filter>
  </defs>

  <rect width="800" height="200" fill="url(#dxBannerBackground)"/>
  <path d="M0 150 C112 126 178 170 302 142 C444 110 538 134 800 72 L800 200 L0 200 Z" fill="#f4a836" opacity="0.06"/>
  <path d="M0 38 C154 66 274 28 414 52 C558 78 650 62 800 34" fill="none" stroke="#f4a836" stroke-width="1.2" opacity="0.2"/>
  <path d="M0 58 C168 88 296 48 432 72 C568 96 658 82 800 54" fill="none" stroke="#ffd48e" stroke-width="1.2" opacity="0.12"/>

  <g transform="translate(34 42)" filter="url(#dxBannerSoftShadow)">
    <polygon points="44,0 82,22 82,66 44,88 6,66 6,22" fill="#0d1117" stroke="#222b36" stroke-width="1.5" stroke-linejoin="round"/>
    <polygon points="44,7 76,25 76,63 44,81 12,63 12,25" fill="none" stroke="url(#dxBannerAmber)" stroke-width="3" stroke-linejoin="round"/>
    <path d="M44 44 L44 18 M44 44 L70 60 M44 44 L18 60" stroke="#ffd48e" stroke-width="2.8" stroke-linecap="round"/>
    <circle cx="44" cy="15" r="4.3" fill="#ffd48e"/>
    <circle cx="74" cy="62" r="4.3" fill="#ffd48e"/>
    <circle cx="14" cy="62" r="4.3" fill="#ffd48e"/>
    <circle cx="44" cy="44" r="7" fill="#ffd48e"/>
  </g>

  <g transform="translate(132 44)">
    <text x="0" y="0" font-family="'JetBrains Mono', 'SF Mono', monospace" font-size="10" font-weight="700" letter-spacing="0" fill="#9aa3af">UNITY / C# / MIT</text>
    <text x="0" y="46" font-family="'Space Grotesk', 'IBM Plex Sans', 'Segoe UI', sans-serif" font-size="44" font-weight="700" letter-spacing="0" fill="#e9eef4">DxMessaging</text>
    <text x="0" y="78" font-family="'IBM Plex Sans', 'Segoe UI', sans-serif" font-size="17" font-weight="700" letter-spacing="0" fill="#f4a836">Decoupled, simple systems.</text>
    <text x="0" y="103" font-family="'IBM Plex Sans', 'Segoe UI', sans-serif" font-size="13" font-weight="500" letter-spacing="0" fill="#9aa3af">Typed routes. Managed listeners. Editor visibility.</text>
  </g>

  <g transform="translate(132 150)" font-family="'IBM Plex Sans', 'Segoe UI', sans-serif" font-size="12" font-weight="800">
    <rect x="0" y="0" width="108" height="28" rx="8" fill="#f4a836"/>
    <text x="54" y="18" text-anchor="middle" fill="#0d1117">OpenUPM</text>
    <rect x="120" y="0" width="112" height="28" rx="8" fill="none" stroke="#7fb88a" stroke-width="1.5"/>
    <text data-sync="test-count" x="176" y="18" text-anchor="middle" fill="#7fb88a">1500+ Tests</text>
    <!-- Version text must contain vX.Y.Z for version sync. -->
    <rect x="244" y="0" width="76" height="28" rx="8" fill="#0c1016" stroke="#232c38" stroke-width="1"/>
    <text data-sync="version" x="282" y="18" text-anchor="middle" font-family="'JetBrains Mono', 'SF Mono', monospace" font-size="11" font-weight="800" fill="#e9eef4">v3.2.0</text>
  </g>

  <g transform="translate(536 42)" filter="url(#dxBannerSoftShadow)">
    <rect x="0" y="0" width="226" height="120" rx="8" fill="#0c1016" stroke="#232c38"/>
    <text x="18" y="27" font-family="'JetBrains Mono', 'SF Mono', monospace" font-size="10" font-weight="800" letter-spacing="0" fill="#e9eef4">ONE BUS, THREE ROUTES</text>
    <g transform="translate(14 47)">
      <rect x="0" y="0" width="27" height="27" rx="6" fill="#111823" stroke="#232c38"/>
      <text x="13.5" y="17.5" text-anchor="middle" font-family="'JetBrains Mono', 'SF Mono', monospace" font-size="10" font-weight="800" fill="#7fa6d8">U</text>
      <line x1="35" y1="13.5" x2="62" y2="13.5" stroke="#f4a836" stroke-width="2.4" stroke-linecap="round" opacity="0.82"/>
      <rect x="69" y="3" width="21" height="21" rx="6" fill="#f4a836"/>
      <line x1="98" y1="13.5" x2="126" y2="13.5" stroke="#f4a836" stroke-width="2.4" stroke-linecap="round" opacity="0.82"/>
      <rect x="134" y="0" width="27" height="27" rx="6" fill="#111823" stroke="#232c38"/>
      <text x="147.5" y="17.5" text-anchor="middle" font-family="'JetBrains Mono', 'SF Mono', monospace" font-size="10" font-weight="800" fill="#ec4661">T</text>
      <line x1="169" y1="13.5" x2="176" y2="13.5" stroke="#f4a836" stroke-width="2.4" stroke-linecap="round" opacity="0.82"/>
      <rect x="184" y="0" width="27" height="27" rx="6" fill="#111823" stroke="#232c38"/>
      <text x="197.5" y="17.5" text-anchor="middle" font-family="'JetBrains Mono', 'SF Mono', monospace" font-size="10" font-weight="800" fill="#7fb88a">B</text>
    </g>
    <g transform="translate(18 88)" font-family="'IBM Plex Sans', 'Segoe UI', sans-serif" font-size="10" font-weight="700">
      <rect x="0" y="0" width="190" height="20" rx="6" fill="none" stroke="#232c38"/>
      <text x="10" y="14" fill="#9aa3af">No direct scene references</text>
    </g>
  </g>

  <text x="762" y="190" text-anchor="end" font-family="'IBM Plex Sans', 'Segoe UI', sans-serif" font-size="10" font-weight="700" letter-spacing="0" fill="#6b7480">Wallstop Studios</text>
</svg>
