<svg xmlns="http://www.w3.org/2000/svg" viewBox="0 0 800 200" width="800" height="200" role="img" aria-labelledby="dxmsgBannerTitle" aria-describedby="dxmsgBannerDesc">
  <title id="dxmsgBannerTitle">DxMessaging: decoupled Unity messaging</title>
  <desc id="dxmsgBannerDesc">A DxKit-family amber DxMessaging banner for decoupled, simple Unity systems.</desc>
  <defs>
    <linearGradient id="dxBannerBackground" x1="0" y1="0" x2="800" y2="200" gradientUnits="userSpaceOnUse">
      <stop stop-color="#0d1117"/>
      <stop offset="0.62" stop-color="#10151d"/>
      <stop offset="1" stop-color="#1b1813"/>
    </linearGradient>
    <linearGradient id="dxBannerAmber" x1="40" y1="32" x2="742" y2="164" gradientUnits="userSpaceOnUse">
      <stop stop-color="#ffd48e"/>
      <stop offset="0.48" stop-color="#f4a836"/>
      <stop offset="1" stop-color="#b07d1f"/>
    </linearGradient>
    <filter id="dxBannerSoftShadow" x="-20%" y="-20%" width="140%" height="140%">
      <feDropShadow dx="0" dy="10" stdDeviation="12" flood-color="#000000" flood-opacity="0.32"/>
    </filter>
  </defs>

  <rect width="800" height="200" fill="url(#dxBannerBackground)"/>
  <path d="M0 150 C112 126 178 170 302 142 C444 110 538 134 800 72 L800 200 L0 200 Z" fill="#f4a836" opacity="0.06"/>
  <path d="M0 38 C154 66 274 28 414 52 C558 78 650 62 800 34" fill="none" stroke="#f4a836" stroke-width="1.2" opacity="0.2"/>
  <path d="M0 58 C168 88 296 48 432 72 C568 96 658 82 800 54" fill="none" stroke="#ffd48e" stroke-width="1.2" opacity="0.12"/>

  <g transform="translate(34 42)" filter="url(#dxBannerSoftShadow)">
    <polygon points="44,0 82,22 82,66 44,88 6,66 6,22" fill="#0d1117" stroke="#222b36" stroke-width="1.5" stroke-linejoin="round"/>
    <polygon points="44,7 76,25 76,63 44,81 12,63 12,25" fill="none" stroke="url(#dxBannerAmber)" stroke-width="3" stroke-linejoin="round"/>
    <path d="M44 44 L44 18 M44 44 L70 60 M44 44 L18 60" stroke="#ffd48e" stroke-width="2.8" stroke-linecap="round"/>
    <circle cx="44" cy="15" r="4.3" fill="#ffd48e"/>
    <circle cx="74" cy="62" r="4.3" fill="#ffd48e"/>
    <circle cx="14" cy="62" r="4.3" fill="#ffd48e"/>
    <circle cx="44" cy="44" r="7" fill="#ffd48e"/>
  </g>

  <g transform="translate(132 40)">
    <text x="0" y="0" font-family="'JetBrains Mono', 'SF Mono', monospace" font-size="10" font-weight="700" letter-spacing="0.5" fill="#9aa3af">UNITY &#183; C#</text>
    <text x="0" y="44" font-family="'Space Grotesk', 'IBM Plex Sans', 'Segoe UI', sans-serif" font-size="44" font-weight="700" letter-spacing="0" fill="#e9eef4">DxMessaging</text>
    <text x="0" y="76" font-family="'IBM Plex Sans', 'Segoe UI', sans-serif" font-size="17" font-weight="700" letter-spacing="0" fill="#f4a836">Decoupled, simple systems.</text>
    <text x="0" y="100" font-family="'IBM Plex Sans', 'Segoe UI', sans-serif" font-size="13" font-weight="500" letter-spacing="0" fill="#9aa3af">Typed routes. Managed listeners. Editor visibility.</text>
  </g>

  <g transform="translate(132 158)" font-family="'IBM Plex Sans', 'Segoe UI', sans-serif" font-size="12" font-weight="800">
    <rect x="0" y="0" width="84" height="28" rx="8" fill="#f4a836"/>
    <text x="42" y="18" text-anchor="middle" fill="#0d1117">Simple</text>
    <rect x="96" y="0" width="58" height="28" rx="8" fill="none" stroke="#4a5462" stroke-width="1.5"/>
    <text x="125" y="18" text-anchor="middle" fill="#c9d1d9">MIT</text>
    <!-- Version text must contain vX.Y.Z for version sync. -->
    <rect x="166" y="0" width="76" height="28" rx="8" fill="#0c1016" stroke="#232c38" stroke-width="1"/>
    <text data-sync="version" x="204" y="18" text-anchor="middle" font-family="'JetBrains Mono', 'SF Mono', monospace" font-size="11" font-weight="800" fill="#e9eef4">v3.2.0</text>
  </g>

  <g transform="translate(536 40)" filter="url(#dxBannerSoftShadow)">
    <rect x="0" y="0" width="226" height="126" rx="8" fill="#0c1016" stroke="#232c38"/>
    <text x="18" y="26" font-family="'JetBrains Mono', 'SF Mono', monospace" font-size="10" font-weight="800" letter-spacing="0.5" fill="#e9eef4">ONE BUS &#183; THREE ROUTES</text>
    <rect x="18" y="44" width="5" height="68" rx="2.5" fill="url(#dxBannerAmber)"/>
    <g font-family="'IBM Plex Sans', 'Segoe UI', sans-serif" font-size="12" font-weight="700">
      <g>
        <circle cx="32" cy="54" r="4.5" fill="#7fa6d8"/>
        <line x1="40" y1="54" x2="118" y2="54" stroke="#7fa6d8" stroke-width="2" stroke-linecap="round" stroke-dasharray="2 4" opacity="0.75"/>
        <polygon points="120,54 113,50.5 113,57.5" fill="#7fa6d8"/>
        <text x="132" y="58" fill="#7fa6d8">Untargeted</text>
      </g>
      <g>
        <circle cx="32" cy="78" r="4.5" fill="#ec4661"/>
        <line x1="40" y1="78" x2="118" y2="78" stroke="#ec4661" stroke-width="2" stroke-linecap="round" stroke-dasharray="2 4" opacity="0.75"/>
        <polygon points="120,78 113,74.5 113,81.5" fill="#ec4661"/>
        <text x="132" y="82" fill="#ec4661">Targeted</text>
      </g>
      <g>
        <circle cx="32" cy="102" r="4.5" fill="#7fb88a"/>
        <line x1="40" y1="102" x2="118" y2="102" stroke="#7fb88a" stroke-width="2" stroke-linecap="round" stroke-dasharray="2 4" opacity="0.75"/>
        <polygon points="120,102 113,98.5 113,105.5" fill="#7fb88a"/>
        <text x="132" y="106" fill="#7fb88a">Broadcast</text>
      </g>
    </g>
  </g>

  <text x="762" y="190" text-anchor="end" font-family="'IBM Plex Sans', 'Segoe UI', sans-serif" font-size="10" font-weight="700" letter-spacing="0" fill="#6b7480">Wallstop Studios</text>
</svg>
